<?xml version="1.0" encoding="utf-8"?>
<!-- Generator: Adobe Illustrator 23.0.1, SVG Export Plug-In . SVG Version: 6.00 Build 0)  -->
<svg version="1.1" id="Layer_1" xmlns="http://www.w3.org/2000/svg" xmlns:xlink="http://www.w3.org/1999/xlink" x="0px" y="0px"
	 viewBox="0 0 246 43.3" style="enable-background:new 0 0 246 43.3;" xml:space="preserve">
<style type="text/css">
	.st0{fill:url(#SVGID_1_);}
	.st1{fill:#3E3B3B;}
</style>
<g>
	
		<linearGradient id="SVGID_1_" gradientUnits="userSpaceOnUse" x1="51.3747" y1="4.3452" x2="-3.3747" y2="35.9548" gradientTransform="matrix(1 0 0 -1 0 41.8)">
		<stop  offset="0" style="stop-color:#001A22"/>
		<stop  offset="0.5" style="stop-color:#003741"/>
		<stop  offset="1" style="stop-color:#005265"/>
	</linearGradient>
	<path class="st0" d="M0,0v43.3h48V0H0z M9.1,38.2H4.6v-4h4.5V38.2z M9.1,28.8H4.6v-4h4.5V28.8z M9.1,18.6H4.6v-4h4.5V18.6z
		 M9.1,9.3H4.6v-4h4.5V9.3z M42.9,38.2h-4.5v-4h4.5V38.2z M42.9,28.8h-4.5v-4h4.5V28.8z M42.9,18.6h-4.5v-4h4.5V18.6z M42.9,9.3
		h-4.5v-4h4.5V9.3z"/>
</g>
<path class="st1" d="M59.9,2.4h5l25.5,33.8h0.1V2.4h3.9V41h-5L64,7.2h-0.1V41H60V2.4H59.9z"/>
<path class="st1" d="M137.6,26.2c0,2.1-0.3,4.1-0.8,5.9c-0.5,1.9-1.4,3.6-2.6,5c-1.2,1.5-2.8,2.6-4.7,3.5c-1.9,0.9-4.3,1.3-7.2,1.3
	c-2.8,0-5.2-0.4-7.2-1.3c-1.9-0.9-3.5-2-4.7-3.5s-2.1-3.1-2.6-5c-0.5-1.9-0.8-3.9-0.8-5.9V2.4h3.9v22.9c0,1.4,0.1,2.9,0.4,4.4
	c0.3,1.6,0.8,3,1.6,4.4c0.8,1.3,1.9,2.5,3.4,3.3c1.5,0.8,3.4,1.3,5.9,1.3c2.4,0,4.4-0.4,5.9-1.3c1.5-0.9,2.6-2,3.4-3.3
	c0.8-1.3,1.3-2.8,1.6-4.4c0.3-1.6,0.4-3,0.4-4.4V2.4h3.9v23.8H137.6z"/>
<path class="st1" d="M152.2,2.4h14.5c1.8,0,3.5,0.2,5.1,0.6c1.6,0.4,2.9,1,4,1.8s2,1.8,2.7,3c0.6,1.2,1,2.6,1,4.3c0,2.2-0.7,4-2,5.4
	s-3.1,2.4-5.2,3.1v0.1c1.3,0.1,2.4,0.4,3.5,0.9s2.1,1.2,2.9,2.1c0.8,0.9,1.4,1.8,1.9,3c0.5,1.1,0.7,2.3,0.7,3.7
	c0,1.7-0.4,3.3-1.2,4.6c-0.8,1.3-1.8,2.4-3.2,3.4c-1.3,0.9-2.9,1.6-4.7,2.1s-3.7,0.7-5.7,0.7h-14.4L152.2,2.4L152.2,2.4z
	 M157.9,18.4h7.7c1.1,0,2.1-0.1,3-0.3c0.9-0.2,1.8-0.5,2.5-1s1.3-1.1,1.7-1.8c0.4-0.7,0.6-1.6,0.6-2.7c0-1.5-0.5-2.9-1.6-4
	s-2.7-1.7-5-1.7h-8.9V18.4z M157.9,36.4h8.3c0.9,0,1.8-0.1,2.9-0.2c1-0.2,2-0.5,2.9-1s1.7-1.2,2.3-2c0.6-0.8,0.9-1.9,0.9-3.3
	c0-2.3-0.8-4-2.4-5.1c-1.6-1.1-3.8-1.7-6.6-1.7h-8.4v13.3H157.9z"/>
<path class="st1" d="M191.2,2.4h5.7v38.5h-5.7V2.4z"/>
<path class="st1" d="M226.4,41c-2.9,0-5.5-0.5-7.9-1.6c-2.4-1-4.5-2.5-6.2-4.3c-1.7-1.8-3.1-4-4-6.4c-1-2.5-1.5-5.1-1.5-8
	s0.5-5.5,1.5-8s2.3-4.6,4-6.4s3.8-3.2,6.2-4.3c2.4-1,5-1.6,7.9-1.6s5.5,0.5,7.9,1.6c2.4,1,4.5,2.5,6.2,4.3s3.1,4,4,6.4
	c1,2.5,1.5,5.1,1.5,8s-0.5,5.5-1.5,8s-2.3,4.6-4,6.4s-3.8,3.2-6.2,4.3C231.8,40.5,229.2,41,226.4,41z M226.4,36.1
	c2.2,0,4.1-0.4,5.8-1.2c1.7-0.8,3.2-1.9,4.5-3.3c1.2-1.4,2.2-3,2.9-4.9s1-3.9,1-6s-0.3-4.1-1-6s-1.6-3.5-2.9-4.9
	c-1.2-1.4-2.7-2.5-4.5-3.3c-1.7-0.8-3.7-1.2-5.8-1.2c-2.2,0-4.1,0.4-5.8,1.2s-3.2,1.9-4.5,3.3c-1.2,1.4-2.2,3-2.9,4.9s-1,3.9-1,6
	s0.3,4.1,1,6s1.6,3.5,2.9,4.9c1.2,1.4,2.7,2.5,4.5,3.3C222.3,35.7,224.2,36.1,226.4,36.1z"/>
</svg>
